<?xml version="1.0" standalone="no"?>
<!DOCTYPE svg PUBLIC "-//W3C//DTD SVG 20010904//EN"
 "http://www.w3.org/TR/2001/REC-SVG-20010904/DTD/svg10.dtd">
<svg version="1.0" xmlns="http://www.w3.org/2000/svg"
 width="1030.000000pt" height="1030.000000pt" viewBox="0 0 1030.000000 1030.000000"
 preserveAspectRatio="xMidYMid meet">
<metadata>
Created by potrace 1.14, written by Peter Selinger 2001-2017
</metadata>
<g transform="translate(0.000000,1030.000000) scale(0.100000,-0.100000)"
fill="#000000" stroke="none">
<path d="M4988 9755 c-1 -1 -64 -5 -138 -9 -75 -4 -147 -8 -160 -11 -14 -2
-46 -6 -72 -9 -120 -15 -150 -19 -258 -37 -350 -59 -713 -168 -1055 -317 -168
-72 -451 -217 -486 -248 -8 -8 -19 -14 -22 -14 -12 0 -199 -122 -327 -213
-257 -184 -586 -479 -765 -688 -38 -45 -84 -98 -101 -118 -88 -102 -262 -342
-356 -491 -277 -441 -489 -956 -593 -1441 -9 -41 -18 -83 -21 -94 -7 -33 -42
-236 -48 -285 -3 -25 -8 -63 -11 -85 -34 -251 -39 -740 -10 -1000 48 -443 132
-798 282 -1195 20 -52 40 -99 44 -104 5 -6 9 -16 9 -22 0 -19 146 -328 190
-404 5 -8 37 -64 71 -125 115 -204 291 -455 470 -670 79 -95 362 -385 459
-471 142 -126 438 -354 458 -354 6 0 12 -4 14 -9 3 -9 88 -64 218 -143 402
-242 901 -443 1350 -543 362 -80 636 -110 1025 -110 307 0 561 21 790 65 28 5
64 12 80 15 17 2 82 16 145 30 1018 229 1927 801 2588 1628 580 726 921 1605
991 2552 18 243 -1 775 -34 934 -2 14 -7 47 -10 75 -22 193 -158 729 -224 881
-5 11 -19 47 -31 80 -12 33 -31 79 -41 102 -11 24 -19 45 -19 47 0 19 -161
345 -225 456 -21 36 -46 79 -56 97 -98 172 -296 449 -453 633 -115 135 -403
422 -531 529 -427 355 -878 618 -1380 804 -289 107 -634 195 -905 232 -25 3
-52 8 -60 10 -19 5 -122 16 -180 20 -25 2 -74 6 -110 10 -66 7 -496 16 -502
10z"/>
</g>
</svg>
